<svg width="20" height="22" viewBox="0 0 20 22" fill="none" xmlns="http://www.w3.org/2000/svg">
<path d="M19.93 4.65C19.91 4.61 19.89 4.58 19.87 4.54C19.85 4.49 19.83 4.45 19.8 4.4L16.8 0.4C16.61 0.15 16.31 0 16 0H4C3.69 0 3.39 0.15 3.2 0.4L0.2 4.4C0.17 4.44 0.15 4.49 0.13 4.54C0.11 4.57 0.09 4.61 0.07 4.65C0.03 4.76 0 4.88 0 5V19C0 20.65 1.35 22 3 22H17C18.65 22 20 20.65 20 19V5C20 4.88 19.97 4.76 19.93 4.65ZM4.5 2H15.5L17 4H3L4.5 2ZM17 20H3C2.45 20 2 19.55 2 19V6H18V19C18 19.55 17.55 20 17 20Z" fill="#363E61"/>
<path d="M14 8C13.45 8 13 8.45 13 9C13 10.65 11.65 12 10 12C8.35 12 7 10.65 7 9C7 8.45 6.55 8 6 8C5.45 8 5 8.45 5 9C5 11.76 7.24 14 10 14C12.76 14 15 11.76 15 9C15 8.45 14.55 8 14 8Z" fill="#363E61"/>
</svg>
