<svg width="20" height="20" viewBox="0 0 20 20" fill="none" xmlns="http://www.w3.org/2000/svg">
<path d="M19.71 18.29L16.03 14.61C17.26 13.07 18 11.12 18 9C18 4.04 13.96 0 9 0C4.04 0 0 4.04 0 9C0 13.96 4.04 18 9 18C11.12 18 13.07 17.26 14.61 16.03L18.29 19.71C18.49 19.9 18.74 20 19 20C19.26 20 19.51 19.9 19.71 19.71C20.1 19.32 20.1 18.68 19.71 18.29ZM2 9C2 5.14 5.14 2 9 2C12.86 2 16 5.14 16 9C16 10.92 15.22 12.66 13.96 13.93C13.95 13.94 13.95 13.94 13.94 13.94C13.93 13.94 13.93 13.95 13.93 13.96C12.66 15.22 10.92 16 9 16C5.14 16 2 12.86 2 9Z" fill="#363E61"/>
</svg>
